<?xml version="1.0" encoding="UTF-8"?>
<svg xmlns="http://www.w3.org/2000/svg" width="800" height="600" viewBox="0 0 800 600">
  <style>
    .zone { stroke: currentColor; fill: none; stroke-width: 10; stroke-linejoin: round; stroke-linecap: round; opacity: 0.85; }
    .corner-dot { fill: currentColor; stroke: none; }
    .corner-num { fill: currentColor; font-size: 12px; font-weight: bold; font-family: Arial, sans-serif; }
    .sf-line { stroke: currentColor; stroke-width: 3; }
  </style>

  <path d="M647.2,313.1 L649.7,314.0 L652.5,315.1 L658.2,317.5 L662.7,319.6 L662.9,319.6 L667.1,321.8 L667.3,321.9 L671.5,324.2 L672.7,325.0 L679.0,328.8 L680.2,329.6 L683.3,331.5 L686.5,333.7 L689.3,335.6 L691.3,337.0 L695.6,340.0 L696.6,340.7 L699.3,342.6 L702.8,344.9 L702.8,345.0 L706.1,347.1 L710.5,349.8 L712.5,350.9 L713.7,351.6 L716.6,352.9 L718.0,353.4 L721.7,354.4 L722.0,354.5 L724.6,354.8 L725.2,354.8 L730.3,354.2 L731.7,353.9 L734.4,352.8 L735.9,352.1 L737.8,351.1 L739.0,350.4 L740.7,349.3 L742.9,347.8 L745.1,346.4 L746.3,345.9 L746.6,345.8 L747.7,345.4 L748.1,345.3 L748.8,345.2 L750.1,345.1 L751.9,345.7 L753.7,346.7 L754.2,347.0 L755.6,348.0 L756.5,349.0 L757.1,349.8 L757.1,349.8 L757.8,350.6 L758.5,351.9 L759.5,354.4 L759.6,354.6 L760.0,356.3 L760.0,356.8 L759.9,357.3 L759.6,359.5 L759.2,361.0 L758.9,361.8 L758.2,363.5 L758.1,363.9 L757.0,366.1" class="zone" data-zone="0" data-start="0.000" data-end="0.085"/>
  <path d="M757.0,366.1 L756.6,366.9 L755.3,369.2 L753.6,371.8 L753.2,372.5 L750.0,377.0 L749.1,378.0 L746.7,380.7 L745.2,382.2 L744.3,383.1 L742.0,385.4 L738.5,388.8 L738.2,389.1 L736.1,391.1 L735.2,391.8 L731.7,394.8 L731.1,395.3 L727.4,398.1 L724.8,399.8 L722.3,401.4 L719.4,403.1 L719.1,403.3 L715.9,405.1 L714.5,405.8 L711.2,407.5 L707.7,409.3 L706.0,410.1 L703.2,411.4 L701.6,412.2 L698.7,413.5" class="zone" data-zone="1" data-start="0.085" data-end="0.132"/>
  <path d="M698.7,413.5 L697.0,414.3 L692.3,416.3 L686.3,418.9 L682.4,420.5 L681.2,421.0 L675.6,423.4 L675.1,423.6 L671.6,425.1 L668.8,426.1 L667.1,426.6 L663.1,427.8 L659.3,428.5 L654.0,428.5 L653.8,428.6 L651.9,428.5 L650.2,427.5 L648.5,426.5 L646.0,424.9 L644.7,424.0 L644.3,423.7 L641.3,421.7 L641.1,421.6 L636.2,419.2 L635.5,419.0 L632.6,418.1 L632.1,418.0 L630.1,417.6 L629.0,417.5 L625.9,417.5 L624.5,417.6 L623.2,417.7 L619.5,418.4" class="zone" data-zone="2" data-start="0.132" data-end="0.183"/>
  <path d="M619.5,418.4 L617.7,418.7 L616.7,418.9 L615.8,419.1 L611.1,419.9 L610.4,420.1 L607.7,420.7 L607.1,420.7 L605.1,421.1 L603.8,421.3 L602.3,421.7 L598.4,422.5 L596.7,422.9 L593.1,423.8 L592.7,424.0 L590.2,424.6 L587.7,425.5 L585.3,426.3 L583.6,427.0 L579.4,428.7 L579.3,428.7 L575.1,430.5 L574.1,431.0 L571.6,432.1 L567.6,433.8 L565.9,434.5 L559.8,436.6 L559.3,436.8 L552.5,437.9 L549.0,438.0 L546.4,437.9 L540.6,437.3" class="zone" data-zone="3" data-start="0.183" data-end="0.232"/>
  <path d="M540.6,437.3 L537.4,436.8 L535.2,436.4 L532.7,435.8 L528.1,434.6 L528.0,434.5 L523.3,432.7 L519.1,430.7 L519.0,430.6 L516.7,429.4 L514.1,428.1 L510.8,426.3 L508.2,424.8 L504.4,422.6 L503.1,421.8 L498.3,419.0 L496.9,418.1 L494.1,416.4" class="zone" data-zone="4" data-start="0.232" data-end="0.263"/>
  <path d="M494.1,416.4 L493.6,416.0 L492.1,415.1 L488.3,412.9 L487.3,412.4 L481.0,409.7 L479.9,409.3 L478.6,408.9 L478.0,408.8 L476.7,408.6 L474.2,408.2 L473.3,408.1 L471.6,408.1 L470.4,408.2 L469.5,408.3 L467.7,408.8 L467.2,408.9 L464.2,410.6 L464.0,410.7 L462.6,412.0 L461.9,412.9 L461.3,413.8 L460.9,414.3 L459.4,417.3 L459.3,417.6 L459.0,418.2 L458.4,419.7 L457.7,421.3 L457.6,421.6 L456.8,423.1 L456.8,423.1 L455.9,424.9 L454.9,426.4 L453.9,427.7 L453.0,428.7 L451.4,430.2 L451.3,430.4 L449.2,431.7 L448.7,432.1 L445.9,433.4 L443.9,434.2 L442.7,434.5 L440.3,435.1 L439.1,435.3 L435.8,435.7 L435.8,435.7 L432.7,435.9 L431.3,435.8 L425.6,435.2" class="zone" data-zone="5" data-start="0.263" data-end="0.312"/>
  <path d="M425.6,435.2 L424.1,435.0 L421.7,434.5 L419.5,433.9 L417.2,433.2 L414.0,432.2 L413.5,432.1 L409.5,430.7 L409.5,430.7 L404.3,428.7 L403.0,428.2 L400.5,427.3 L399.2,426.7 L396.2,425.6 L394.0,424.6 L390.5,423.3 L386.0,421.4 L383.7,420.5 L380.4,419.0 L379.1,418.5 L375.8,417.1 L374.9,416.7 L369.6,414.4 L368.0,413.6 L362.3,411.2 L361.1,410.6 L355.2,407.8 L351.3,406.1 L349.1,405.0 L345.3,403.1 L335.3,398.0 L334.0,397.4 L330.2,395.3 L326.0,393.0" class="zone" data-zone="6" data-start="0.312" data-end="0.380"/>
  <path d="M326.0,393.0 L324.3,392.0 L320.2,389.7 L317.6,388.1 L314.6,386.3 L313.1,385.3 L307.9,382.1 L305.8,380.7 L301.8,378.1 L300.3,377.0 L296.0,374.1 L295.6,373.9 L290.1,369.9 L290.0,369.8 L285.9,366.9 L285.1,366.2 L281.9,363.8 L281.6,363.5 L277.2,360.0 L273.9,357.5 L273.4,356.9 L270.0,354.2 L265.7,350.4 L265.6,350.3 L259.3,344.8 L257.5,343.2" class="zone" data-zone="7" data-start="0.380" data-end="0.431"/>
  <path d="M257.5,343.2 L254.4,340.4 L254.1,340.1 L252.2,338.5 L250.0,336.6 L247.4,334.4 L246.7,333.7 L244.8,332.2 L242.4,330.1 L241.1,328.9 L237.8,325.8 L237.5,325.6 L236.1,324.1 L235.2,323.2 L233.9,321.6 L232.2,318.9 L231.8,318.3 L231.2,316.8 L231.1,316.4 L231.0,314.5 L230.9,313.8 L231.1,312.1 L231.8,309.3 L231.8,309.2 L232.3,307.4 L232.4,307.4 L232.8,305.0 L232.9,304.4 L233.0,303.2 L233.0,299.8 L233.0,298.6 L232.8,297.0 L232.3,294.3 L232.2,294.0 L231.5,291.8 L230.7,289.6 L230.0,288.3 L229.0,286.2 L227.5,283.9 L225.8,281.6 L224.3,279.7 L222.0,277.1 L221.9,277.0 L218.9,273.9 L217.4,272.5 L214.6,269.9" class="zone" data-zone="8" data-start="0.431" data-end="0.485"/>
  <path d="M214.6,269.9 L212.0,267.5 L210.0,265.8 L206.1,262.3 L203.9,260.4 L203.4,259.8 L198.5,255.5 L197.1,254.3 L196.1,253.4 L193.5,251.3 L192.9,250.8 L189.4,248.0 L187.0,245.9 L185.6,244.9 L183.4,243.2 L178.3,239.3 L177.5,238.6 L174.2,236.2 L174.2,236.1 L170.8,233.7 L169.1,232.3 L166.6,230.5 L165.6,229.8 L161.8,227.0 L158.6,224.7 L155.5,222.6 L155.0,222.2 L150.5,219.2 L149.5,218.6 L147.6,217.3 L140.9,213.3 L140.9,213.2 L137.0,211.0 L136.9,210.9 L133.0,208.7 L127.5,205.6 L126.8,205.2 L123.2,203.3 L120.7,201.9 L114.2,198.6 L110.9,196.9 L109.9,196.5 L105.6,194.6 L104.4,194.1 L99.5,192.2 L92.7,190.0" class="zone" data-zone="9" data-start="0.485" data-end="0.576"/>
  <path d="M92.7,190.0 L87.5,188.4 L85.1,187.7 L74.8,185.0 L74.7,185.0 L71.4,184.1 L70.7,184.0 L66.1,182.7 L65.2,182.5 L62.1,181.6 L61.1,181.3 L57.4,180.3 L54.7,179.5 L53.7,179.2 L52.1,178.6 L50.2,178.0 L49.9,177.9 L49.4,177.8 L47.1,176.8 L46.5,176.6 L44.3,175.5 L44.2,175.4 L42.5,174.1 L41.9,173.6 L41.3,173.0 L40.8,171.8 L40.2,170.3 L40.0,169.5 L40.1,168.6 L40.3,167.4 L40.3,167.0 L40.6,166.1 L40.7,166.0 L41.9,164.2 L41.9,164.1 L42.9,163.4 L43.0,163.3 L44.0,162.7 L44.0,162.7 L45.9,162.2 L46.3,162.1 L46.6,162.1 L47.7,162.0 L48.4,162.0 L49.5,162.1 L49.8,162.1 L50.6,162.1 L52.4,162.3 L52.5,162.3 L53.7,162.6 L54.0,162.6 L57.9,163.6 L58.5,163.8 L59.5,164.0 L61.3,164.7 L61.4,164.7 L64.0,165.8 L65.4,166.3 L65.5,166.3 L68.2,167.5 L72.0,169.2 L73.4,169.8 L75.7,170.7 L76.2,170.9 L81.1,172.5 L81.2,172.6 L81.8,172.8 L84.9,173.5 L87.8,174.2 L91.2,174.7 L93.1,175.0 L97.2,175.5 L97.4,175.6 L100.5,175.8" class="zone" data-zone="10" data-start="0.576" data-end="0.651"/>
  <path d="M100.5,175.8 L101.4,175.9 L107.6,176.5 L110.6,176.8 L112.9,177.0 L113.9,177.1 L122.6,177.8 L123.2,177.9 L127.1,178.2 L131.1,178.6 L131.2,178.6 L136.3,179.0 L136.4,179.0 L145.2,179.7 L148.1,179.9 L152.6,180.3 L155.4,180.5 L158.7,180.7 L160.4,180.9 L167.6,181.5 L168.1,181.5 L171.6,181.8 L173.7,182.0 L176.4,182.3 L179.4,182.5 L186.2,183.2 L191.5,183.7 L195.7,184.2 L200.0,184.7 L200.9,184.8 L204.6,185.3 L206.8,185.5 L210.4,186.1 L214.2,186.6 L218.9,187.4 L226.2,188.7 L229.0,189.3 L231.4,189.7" class="zone" data-zone="11" data-start="0.651" data-end="0.731"/>
  <path d="M231.4,189.7 L238.3,191.2 L241.6,191.9 L244.4,192.5 L247.7,193.3 L251.9,194.3 L252.7,194.5 L258.1,195.8 L260.2,196.4 L265.6,197.7 L273.2,199.7 L275.2,200.2 L276.9,200.7 L282.8,202.2 L283.9,202.5 L289.0,203.9 L294.3,205.3 L299.5,206.6 L300.6,206.9 L305.1,208.1 L305.9,208.3 L310.3,209.5 L312.4,210.1 L318.8,211.8 L319.3,211.9 L325.2,213.4 L327.9,214.2 L330.4,214.8 L341.0,217.7 L343.5,218.3 L346.8,219.2 L350.7,220.2 L356.8,221.9 L365.2,224.2 L369.4,225.3 L373.8,226.5 L383.0,229.0 L389.8,230.8 L393.6,231.8 L395.2,232.3 L396.8,232.7 L402.0,234.0 L405.2,234.8 L409.5,236.0 L415.9,237.6 L420.9,239.0 L422.5,239.4 L426.4,240.4" class="zone" data-zone="12" data-start="0.731" data-end="0.854"/>
  <path d="M426.4,240.4 L431.9,241.8 L438.5,243.5 L440.0,243.9 L447.0,245.8 L447.9,246.0 L452.1,247.1 L455.0,247.9 L460.2,249.2 L461.3,249.5 L464.8,250.4 L466.2,250.9 L469.5,251.9 L470.0,252.0 L472.8,253.0 L474.9,253.9 L475.6,254.2 L477.4,255.1 L479.0,256.1 L480.6,257.4 L481.1,257.9 L481.7,258.7 L483.5,261.2 L483.8,261.5 L484.6,263.0 L485.1,263.9 L486.6,266.4 L486.8,266.6 L488.4,268.5 L490.0,270.0 L492.1,271.8 L492.1,271.8 L494.3,273.2 L494.5,273.3 L496.4,274.3 L498.5,275.3 L499.0,275.5 L501.8,276.7 L502.4,276.9 L504.7,277.8 L505.3,278.0 L508.1,278.9 L513.2,280.4 L514.8,280.8 L517.9,281.5" class="zone" data-zone="13" data-start="0.854" data-end="0.916"/>
  <path d="M517.9,281.5 L518.3,281.6 L523.8,282.8 L526.5,283.4 L530.7,284.2 L531.3,284.4 L533.2,284.8 L534.9,285.1 L537.1,285.6 L537.9,285.8 L542.3,286.7 L546.9,287.8 L549.5,288.4 L550.6,288.7 L554.6,289.6 L558.3,290.5 L559.9,290.9 L562.2,291.5 L567.8,292.9 L571.9,293.9 L574.9,294.6 L580.8,296.0 L581.5,296.2 L587.1,297.5 L587.7,297.7 L593.4,299.0 L598.3,300.2 L601.9,301.0 L603.7,301.5 L606.3,302.0 L611.2,303.2 L612.2,303.4 L621.0,305.6 L623.2,306.1 L627.7,307.3 L627.8,307.3 L632.4,308.5 L634.6,309.1 L640.2,310.8 L640.8,310.9 L648.7,313.7 L650.8,314.4 L651.0,314.5" class="zone" data-zone="14" data-start="0.916" data-end="0.000"/>

  <!-- Start/Finish line -->
  <line x1="650.2" y1="304.6" x2="644.1" y2="321.5" class="sf-line"/>

  <!-- Corner markers -->
  <circle cx="722.0" cy="354.5" r="3.5" class="corner-dot"/>
  <text x="722.0" y="346.5" text-anchor="middle" class="corner-num">1</text>
  <circle cx="757.1" cy="349.8" r="3.5" class="corner-dot"/>
  <text x="757.1" y="341.8" text-anchor="middle" class="corner-num">2</text>
  <circle cx="650.2" cy="427.5" r="3.5" class="corner-dot"/>
  <text x="650.2" y="419.5" text-anchor="middle" class="corner-num">3</text>
  <circle cx="632.6" cy="418.1" r="3.5" class="corner-dot"/>
  <text x="632.6" y="410.1" text-anchor="middle" class="corner-num">4</text>
  <circle cx="549.0" cy="438.0" r="3.5" class="corner-dot"/>
  <text x="549.0" y="430.0" text-anchor="middle" class="corner-num">5</text>
  <circle cx="471.6" cy="408.1" r="3.5" class="corner-dot"/>
  <text x="471.6" y="400.1" text-anchor="middle" class="corner-num">6</text>
  <circle cx="449.2" cy="431.7" r="3.5" class="corner-dot"/>
  <text x="449.2" y="423.7" text-anchor="middle" class="corner-num">7</text>
  <circle cx="230.9" cy="313.8" r="3.5" class="corner-dot"/>
  <text x="230.9" y="305.8" text-anchor="middle" class="corner-num">8</text>
  <circle cx="227.5" cy="283.9" r="3.5" class="corner-dot"/>
  <text x="227.5" y="275.9" text-anchor="middle" class="corner-num">9</text>
  <circle cx="40.6" cy="166.1" r="3.5" class="corner-dot"/>
  <text x="40.6" y="158.1" text-anchor="middle" class="corner-num">10</text>
  <circle cx="81.1" cy="172.5" r="3.5" class="corner-dot"/>
  <text x="81.1" y="164.5" text-anchor="middle" class="corner-num">11</text>
  <circle cx="218.9" cy="187.4" r="3.5" class="corner-dot"/>
  <text x="218.9" y="179.4" text-anchor="middle" class="corner-num">12</text>
  <circle cx="481.7" cy="258.7" r="3.5" class="corner-dot"/>
  <text x="481.7" y="250.7" text-anchor="middle" class="corner-num">13</text>
  <circle cx="488.4" cy="268.5" r="3.5" class="corner-dot"/>
  <text x="488.4" y="260.5" text-anchor="middle" class="corner-num">14</text>
</svg>