<?xml version="1.0" encoding="UTF-8"?>
<svg xmlns="http://www.w3.org/2000/svg" width="800" height="600" viewBox="0 0 800 600">
  <style>
    .zone { stroke: currentColor; fill: none; stroke-width: 10; stroke-linejoin: round; stroke-linecap: round; opacity: 0.85; }
    .corner-dot { fill: currentColor; stroke: none; }
    .corner-num { fill: currentColor; font-size: 12px; font-weight: bold; font-family: Arial, sans-serif; }
    .sf-line { stroke: currentColor; stroke-width: 3; }
  </style>

  <path d="M113.0,423.5 L112.0,424.1 L108.2,426.8 L106.8,427.7 L103.4,430.1 L102.4,430.8 L98.5,433.4 L97.1,434.4 L93.7,436.8 L91.7,438.1 L88.7,440.2 L85.4,442.4 L83.8,443.6 L80.3,446.0 L79.2,446.7 L75.8,449.1 L75.1,449.5 L72.5,451.3 L71.5,452.0 L67.5,454.7 L66.8,455.2 L64.0,457.0 L63.8,457.1 L61.1,458.7 L61.1,458.8 L58.7,460.1 L58.5,460.3 L56.5,461.3 L56.1,461.5 L54.5,462.2 L53.9,462.4 L52.6,462.9 L52.2,462.9 L50.7,463.3 L50.2,463.4 L48.9,463.5 L48.2,463.5 L47.2,463.6 L46.4,463.5 L45.5,463.3 L44.9,463.1 L44.0,462.8 L43.4,462.5 L42.7,462.1 L42.0,461.5 L41.6,461.0 L41.0,460.1 L40.8,459.7 L40.4,458.6 L40.2,458.3 L40.0,456.8 L40.0,456.8 L40.0,455.4 L40.1,455.0 L40.3,453.6 L40.4,453.4 L40.7,451.9 L40.8,451.5 L41.2,450.1 L41.4,449.6 L41.9,448.3 L42.2,447.5 L42.6,446.4 L43.0,445.4 L43.5,444.3 L44.0,443.1" class="zone" data-zone="0" data-start="0.020" data-end="0.063"/>
  <path d="M44.0,443.1 L44.4,442.1 L44.9,441.0 L45.5,439.8 L46.1,438.4 L46.6,437.3 L47.5,435.6 L48.0,434.7 L49.0,432.5 L49.4,431.8 L50.6,429.3 L50.8,428.8 L52.2,426.1 L52.6,425.1 L54.4,421.6 L54.7,421.0 L56.4,417.5 L56.5,417.3 L58.4,413.4 L58.5,413.3 L60.4,409.4 L60.7,408.9 L62.5,405.3 L63.0,404.4 L64.8,401.0 L65.5,399.7 L67.2,396.7 L68.2,395.0 L69.8,392.3 L71.1,390.2 L72.5,387.9 L74.2,385.4 L75.5,383.5 L77.6,380.6 L78.6,379.1 L81.1,375.8 L81.9,374.7 L84.2,371.7 L85.3,370.2 L87.8,367.0 L88.7,365.9 L91.8,362.2 L92.4,361.5 L96.1,357.4 L96.3,357.1 L100.3,353.0 L100.8,352.5 L104.5,348.7 L104.6,348.6 L108.8,344.4" class="zone" data-zone="1" data-start="0.063" data-end="0.110"/>
  <path d="M108.8,344.4 L109.3,343.9 L113.1,340.1 L114.0,339.3 L117.2,336.0 L118.5,334.8 L121.7,331.6 L123.5,329.9 L126.2,327.2 L128.4,325.1 L130.8,322.8 L132.6,321.1 L135.4,318.3 L137.6,316.2 L140.1,313.9 L142.7,311.4 L144.8,309.4 L147.9,306.5 L149.5,304.9 L154.0,300.8 L154.3,300.5 L159.2,296.0 L159.3,295.9 L164.1,291.6 L164.6,291.1 L168.9,287.0 L169.0,286.9 L173.5,282.3 L174.0,281.7 L177.7,277.3 L178.5,276.3 L181.1,272.0 L182.0,270.2 L184.0,265.5 L185.1,263.0 L187.0,259.2 L188.7,256.6 L190.6,254.0 L193.1,251.2" class="zone" data-zone="2" data-start="0.110" data-end="0.161"/>
  <path d="M193.1,251.2 L195.0,249.4 L198.4,246.7 L200.3,245.5 L204.9,243.1 L206.5,242.4 L211.7,240.2 L212.7,239.9 L218.5,238.1 L218.9,238.0 L224.1,236.9 L225.1,236.7 L231.4,235.7 L231.8,235.7 L238.2,234.1 L238.4,234.1 L244.2,231.7 L245.6,231.0 L251.3,227.7 L253.1,226.6 L257.0,224.1 L259.1,222.7 L262.5,220.4 L264.1,219.3 L267.8,216.6 L269.9,215.1 L273.1,212.7 L275.6,210.7 L278.3,208.6 L281.2,206.2 L283.5,204.4 L287.0,201.8" class="zone" data-zone="3" data-start="0.161" data-end="0.205"/>
  <path d="M287.0,201.8 L288.8,200.4 L291.8,198.1 L294.1,196.3 L297.6,193.7 L299.5,192.3 L304.5,188.6 L304.8,188.3 L310.3,184.4 L310.4,184.3 L315.8,180.6 L316.5,180.1 L321.4,176.9 L322.5,176.2 L326.8,173.6 L328.5,172.6 L332.7,170.2 L335.0,169.0 L338.7,167.1 L340.5,166.2 L344.9,164.2 L347.3,163.1 L351.2,161.5 L354.2,160.3 L357.6,159.0 L361.3,157.7 L364.1,156.8 L367.2,155.7 L370.6,154.5 L374.3,153.2 L377.1,152.2 L381.5,150.7 L383.7,149.9 L388.6,148.2 L390.2,147.6 L396.8,145.3 L396.9,145.2 L403.1,143.1 L403.8,142.8 L409.7,140.8 L411.0,140.3 L416.3,138.5 L417.1,138.2 L422.6,136.2 L425.8,135.1 L429.2,133.9 L433.0,132.6 L435.8,131.6 L440.2,130.0 L442.5,129.2" class="zone" data-zone="4" data-start="0.205" data-end="0.275"/>
  <path d="M442.5,129.2 L447.5,127.4 L449.1,126.8 L454.7,124.8 L455.8,124.4 L460.7,122.7 L462.4,122.1 L468.0,120.1 L469.1,119.7 L475.3,117.5 L475.8,117.3 L482.5,115.0 L482.6,114.9 L489.1,112.6 L489.9,112.3 L495.8,110.2 L497.1,109.7 L502.4,107.8 L503.2,107.6 L509.0,105.5 L510.4,105.0 L515.7,103.1 L517.6,102.4 L522.2,100.7 L524.8,99.8 L528.8,98.4 L532.0,97.3 L535.4,96.1 L539.1,94.8 L541.8,93.8 L546.1,92.3 L548.4,91.5 L552.1,90.2 L554.9,89.2 L560.4,87.3 L561.5,86.9 L567.6,84.8 L568.0,84.6 L574.0,82.4 L574.2,82.4 L579.5,80.4 L580.1,80.2 L584.6,78.7 L584.7,78.7 L589.1,77.3 L589.6,77.2 L593.1,76.2 L593.9,76.0 L597.0,75.5 L598.1,75.3 L600.8,75.1 L602.1,75.1 L603.8,75.2 L605.1,75.4 L607.0,75.7 L609.0,76.4 L610.0,76.8 L612.7,78.4 L613.6,78.9 L615.9,80.7 L616.3,81.0 L618.7,83.3 L618.9,83.5 L621.4,85.9 L621.9,86.4 L624.0,88.2" class="zone" data-zone="5" data-start="0.275" data-end="0.353"/>
  <path d="M624.0,88.2 L624.7,88.9 L626.6,90.2 L627.7,90.9 L629.4,91.8 L630.2,92.2 L632.4,92.8 L633.7,93.1 L635.8,93.3 L637.4,93.4 L639.2,93.4 L641.2,93.2 L642.7,92.9 L644.9,92.4 L646.1,92.1 L648.7,91.4 L649.6,91.0 L652.0,90.2 L653.2,89.7 L656.0,88.5 L656.9,88.1 L660.1,86.9 L660.7,86.6 L664.3,85.3 L664.6,85.2 L668.7,84.0 L668.8,84.0 L672.8,83.4 L673.2,83.4 L676.8,83.4 L677.5,83.5 L680.2,84.0 L681.4,84.3 L684.3,85.1 L685.8,85.8 L688.1,86.9 L689.9,87.9 L691.8,89.1 L693.7,90.5 L695.1,91.6 L696.6,93.1 L698.2,94.8 L699.9,96.8 L701.1,98.3" class="zone" data-zone="6" data-start="0.353" data-end="0.388"/>
  <path d="M701.1,98.3 L703.0,101.1 L703.7,102.0 L706.0,105.4 L706.4,106.1 L709.0,109.9 L709.2,110.1 L712.1,114.2 L712.1,114.3 L714.9,118.1 L715.1,118.4 L718.3,122.6 L718.3,122.7 L721.5,126.9 L721.8,127.4 L724.8,131.1 L725.6,132.1 L728.7,136.0 L729.7,137.4 L732.1,140.4 L733.4,142.0 L735.6,144.8 L736.6,146.1 L739.2,149.1 L740.6,150.9 L742.8,153.6 L744.6,155.8 L746.4,158.0 L748.7,161.2 L749.5,162.2 L751.7,165.5 L752.1,166.0 L754.2,169.5 L754.3,169.7 L756.3,173.2 L756.3,173.3 L757.8,176.3 L757.9,176.4 L759.2,179.5 L759.2,179.6 L759.8,182.4 L759.8,182.8 L760.0,185.2 L759.9,185.9 L759.4,188.2 L759.3,188.6 L758.6,190.8 L758.3,191.3 L757.3,193.2 L756.8,193.9 L755.6,195.3 L754.9,196.1 L753.8,197.2 L752.8,197.9 L751.8,198.6 L750.5,199.3 L749.6,199.7 L748.5,200.1 L747.3,200.5 L745.9,200.8 L744.8,200.9" class="zone" data-zone="7" data-start="0.388" data-end="0.440"/>
  <path d="M744.8,200.9 L743.2,201.0 L742.3,201.0 L740.4,200.7 L739.8,200.6 L737.6,200.0 L737.2,199.9 L734.8,198.9 L734.6,198.8 L732.4,197.6 L732.1,197.4 L729.7,195.6 L729.6,195.5 L727.2,193.2 L727.1,193.2 L724.8,190.6 L724.6,190.2 L722.6,187.6 L722.1,187.0 L720.4,184.5 L720.2,184.2 L718.3,181.1 L717.9,180.4 L716.3,177.5 L715.7,176.4 L714.3,173.8 L713.5,172.3 L712.2,170.0 L711.2,168.3 L710.2,166.6 L708.8,164.5 L707.7,163.0 L705.9,160.8 L705.0,159.8 L703.4,158.1 L702.0,157.0 L699.9,155.4 L698.8,154.7 L696.2,153.3 L695.4,152.9 L692.3,152.0 L691.7,151.9 L688.7,151.5 L687.8,151.5 L684.4,151.6 L683.8,151.6 L680.0,152.2 L679.7,152.2 L675.6,153.3 L674.7,153.6 L671.5,154.7 L670.6,155.0 L669.0,155.6 L667.7,156.2 L665.3,157.4 L662.5,158.7 L661.4,159.2 L657.5,160.9 L656.8,161.2 L653.4,162.7 L652.3,163.2 L648.4,164.9 L647.7,165.2 L643.2,167.0 L642.9,167.2 L638.0,169.1 L637.9,169.2 L632.9,171.0 L632.3,171.2 L627.7,172.7 L626.6,173.1 L622.4,174.3" class="zone" data-zone="8" data-start="0.440" data-end="0.500"/>
  <path d="M622.4,174.3 L621.7,174.5 L616.9,175.8 L615.8,176.2 L611.3,177.3 L609.6,177.8 L605.7,178.8 L603.5,179.4 L599.9,180.2 L597.1,180.9 L594.1,181.6 L591.8,182.2 L588.2,183.0 L585.4,183.6 L582.3,184.3 L578.8,185.1 L576.2,185.7 L572.2,186.6 L570.2,187.1 L565.5,188.2 L564.1,188.5 L557.9,190.0 L557.7,190.1 L551.7,191.4 L551.0,191.6 L545.5,192.9 L544.1,193.3 L539.2,194.5 L537.4,195.0 L533.1,196.3 L530.9,197.2 L527.6,198.5 L525.0,199.8 L522.4,201.3 L519.7,203.1 L517.8,204.5 L515.0,207.0 L513.6,208.3 L511.5,210.7" class="zone" data-zone="9" data-start="0.500" data-end="0.548"/>
  <path d="M511.5,210.7 L510.2,212.5 L508.0,215.7 L507.1,217.3 L505.3,221.1 L505.0,221.8 L503.6,227.0 L503.5,227.4 L503.0,233.6 L503.0,233.8 L502.8,239.5 L502.8,239.8 L502.8,245.8 L502.8,246.0 L503.1,251.7 L503.1,252.4 L503.7,257.5 L503.9,258.8 L505.0,263.2 L505.6,264.8 L507.2,268.7 L508.3,270.8 L510.3,274.2 L511.6,276.1 L514.9,280.7 L516.6,282.7 L519.1,285.4 L521.2,287.5 L523.7,289.6 L526.5,291.9 L528.6,293.5 L532.1,295.8 L533.9,296.9 L538.0,299.2 L539.5,299.9 L543.4,301.7 L545.4,302.5 L549.8,304.3 L551.3,304.8 L556.5,306.5 L557.4,306.7" class="zone" data-zone="10" data-start="0.548" data-end="0.599"/>
  <path d="M557.4,306.7 L563.2,308.4 L563.7,308.5 L569.8,310.3 L570.0,310.4 L576.0,312.1 L576.7,312.4 L582.1,314.0 L583.4,314.4 L588.3,315.9 L590.1,316.5 L594.4,317.7 L596.8,318.5 L600.6,319.6 L603.6,320.5 L606.8,321.5 L610.3,322.6 L613.0,323.3 L616.2,324.3 L619.5,325.3 L622.7,326.3 L625.1,327.0 L629.1,328.3 L630.6,328.7 L635.3,330.3 L636.1,330.6 L640.5,332.3 L640.8,332.4 L645.1,334.4 L645.1,334.4 L648.5,336.4 L648.7,336.5 L652.0,338.9 L652.0,339.0 L654.9,341.6 L655.2,342.0 L657.5,344.5 L657.9,345.2 L659.5,347.5 L660.0,348.4 L661.1,350.6 L661.5,352.0 L662.1,354.0 L662.2,355.1 L662.5,357.6 L662.7,359.0 L662.8,361.2" class="zone" data-zone="11" data-start="0.599" data-end="0.650"/>
  <path d="M662.8,361.2 L662.6,363.0 L662.2,364.8 L661.6,367.5 L661.3,368.4 L660.1,371.2 L659.9,371.8 L658.0,375.2 L657.9,375.4 L656.0,379.0 L655.9,379.1 L654.4,382.5 L654.3,382.7 L653.2,386.6 L653.1,386.6 L652.6,390.5 L652.5,390.9 L652.3,394.4 L652.4,395.2 L653.2,398.5 L653.3,399.0 L654.4,402.5 L654.7,403.3 L656.1,406.3 L656.7,407.4 L658.3,409.9 L659.3,411.2 L661.1,413.3 L662.6,414.8 L664.3,416.4 L666.3,418.0 L667.8,419.1 L669.6,420.5 L671.7,421.9 L673.9,423.3 L675.3,424.1 L679.5,426.4 L679.8,426.6 L684.2,428.8" class="zone" data-zone="12" data-start="0.650" data-end="0.683"/>
  <path d="M684.2,428.8 L684.3,428.9 L688.8,431.0 L689.3,431.2 L693.4,433.1 L694.4,433.5 L698.2,435.2 L699.6,435.8 L703.0,437.3 L704.0,437.8 L707.7,439.7 L709.1,440.3 L712.1,441.9 L714.5,443.2 L716.1,444.2 L718.5,445.6 L719.6,446.3 L722.0,447.8 L722.7,448.3 L725.1,450.2 L725.5,450.5 L727.3,452.3 L727.9,452.8 L729.5,454.9 L729.8,455.3 L731.3,457.9 L731.4,458.1 L732.6,461.0 L732.7,461.5 L733.2,463.7 L733.3,464.5 L733.5,466.6 L733.3,467.9 L732.8,470.1 L732.5,471.7 L732.1,473.5 L731.6,475.3 L731.1,476.8" class="zone" data-zone="13" data-start="0.683" data-end="0.714"/>
  <path d="M731.1,476.8 L730.5,478.4 L729.8,480.2 L728.9,482.0 L728.0,483.7 L726.0,487.0 L725.1,488.6 L723.8,490.8 L723.4,491.6 L721.7,494.2 L720.8,495.7 L718.5,498.8 L717.8,499.8 L715.6,502.9 L715.3,503.4 L712.4,506.9 L712.2,507.1 L709.2,510.4 L708.8,510.8 L705.4,514.0 L704.5,514.6 L701.3,517.1 L700.8,517.4 L696.8,519.9 L695.8,520.4 L692.0,522.2 L690.5,522.8 L687.0,523.9 L685.0,524.3 L681.8,524.8 L679.1,524.9 L676.1,524.9 L673.8,524.8 L670.4,524.5 L667.6,524.2 L664.8,523.7 L661.5,523.1 L659.2,522.6 L655.6,521.6 L653.7,521.0 L649.6,519.7 L648.3,519.2 L643.8,517.5 L642.9,517.1 L638.9,515.3 L637.6,514.7 L633.2,512.4 L632.4,512.0 L627.6,509.1 L627.2,509.0 L622.2,505.7" class="zone" data-zone="14" data-start="0.714" data-end="0.768"/>
  <path d="M622.2,505.7 L621.1,505.0 L617.2,502.3 L615.6,501.2 L612.2,498.7 L610.4,497.3 L607.4,495.0 L604.8,492.8 L602.0,490.6 L599.3,488.2 L597.4,486.5 L594.3,483.7 L592.7,482.3 L589.3,479.0 L588.2,478.0 L584.4,474.2 L583.7,473.5 L579.6,469.2 L579.4,468.9 L575.1,464.2 L575.0,464.1 L571.4,459.9 L571.2,459.6 L567.2,454.5 L567.1,454.4 L563.8,449.8 L563.0,448.6 L559.9,444.2 L558.8,442.5 L556.2,438.3 L554.9,436.1 L552.9,432.7 L551.9,430.9 L549.5,427.0" class="zone" data-zone="15" data-start="0.768" data-end="0.812"/>
  <path d="M549.5,427.0 L548.2,424.8 L546.2,421.3 L544.5,418.6 L542.7,415.7 L540.7,412.4 L539.3,410.0 L537.0,406.2 L535.8,404.3 L533.3,400.0 L532.4,398.6 L530.1,394.8 L528.9,392.9 L526.1,388.6 L525.2,387.3 L521.3,381.9 L521.1,381.7 L517.0,376.7 L516.5,376.1 L512.5,371.8 L511.5,370.8 L507.6,367.0 L506.2,365.7 L502.6,362.6 L500.6,361.0 L497.2,358.6 L495.5,357.4 L491.5,354.9 L489.2,353.5 L485.6,351.5 L482.6,350.0 L479.4,348.4 L475.9,346.8 L473.2,345.5 L469.1,343.7 L467.0,342.8 L462.2,340.9 L460.7,340.2 L455.3,338.1 L454.4,337.7 L448.4,335.4" class="zone" data-zone="16" data-start="0.812" data-end="0.868"/>
  <path d="M448.4,335.4 L448.0,335.3 L441.6,332.9 L440.3,332.5 L435.2,330.8 L433.3,330.3 L429.0,329.1 L426.4,328.5 L422.4,327.7 L419.3,327.2 L416.4,326.9 L413.0,326.8 L409.3,326.8 L405.5,327.1 L402.6,327.4 L397.2,328.4 L394.6,329.0 L389.4,330.5 L387.8,331.1 L382.2,333.2 L381.1,333.6 L375.2,336.1 L374.8,336.3 L369.5,338.5 L368.6,338.9 L362.8,341.5 L362.5,341.7 L356.3,344.5 L356.2,344.6 L350.3,347.2 L349.5,347.6 L344.2,350.0" class="zone" data-zone="17" data-start="0.868" data-end="0.913"/>
  <path d="M344.2,350.0 L342.9,350.6 L338.1,352.8 L337.3,353.1 L332.0,355.4 L329.6,356.5 L326.0,358.0 L323.0,359.3 L319.9,360.6 L316.3,361.9 L313.7,362.9 L309.7,364.3 L307.6,364.9 L302.7,366.1 L301.1,366.5 L295.7,367.8 L294.7,368.0 L288.8,369.3 L288.4,369.4 L282.7,370.7 L282.5,370.7 L279.2,371.4 L278.6,371.5 L273.7,372.5 L272.5,372.7 L268.7,373.4 L267.2,373.7 L264.1,374.3 L261.8,374.7 L260.2,375.0 L257.7,375.4 L256.6,375.6 L254.8,375.9" class="zone" data-zone="18" data-start="0.913" data-end="0.951"/>
  <path d="M254.8,375.9 L253.6,376.1 L251.6,376.4 L250.8,376.6 L248.9,376.9 L248.5,377.0 L246.3,377.3 L246.2,377.3 L244.0,377.6 L243.9,377.7 L241.9,377.9 L241.6,377.9 L239.9,378.1 L239.8,378.1 L238.1,378.3 L237.9,378.3 L236.5,378.3 L236.2,378.3 L235.1,378.4 L234.7,378.3 L233.9,378.3 L233.4,378.3 L232.6,378.3 L232.3,378.2 L231.5,378.2 L231.0,378.1 L230.4,378.1 L229.9,378.0 L229.4,378.0 L228.8,377.9 L228.4,377.8 L227.7,377.7 L227.5,377.6 L226.8,377.5 L226.6,377.4 L226.0,377.2 L225.8,377.1 L225.1,376.8 L224.9,376.7 L224.2,376.3 L224.1,376.2 L223.3,375.7 L223.3,375.6 L222.5,375.0 L222.5,375.0 L221.9,374.2 L221.9,374.2 L221.4,373.4 L221.3,373.2 L221.0,372.4 L220.9,372.2 L220.7,371.4 L220.6,371.0 L220.5,370.3 L220.4,369.7 L220.4,369.1 L220.4,368.4 L220.4,367.9 L220.4,367.1 L220.4,366.7 L220.3,366.0 L220.2,365.4 L220.1,364.5 L220.0,364.2 L219.7,363.3 L219.7,363.1 L219.2,362.1 L219.2,362.1 L218.7,361.2 L218.6,361.2 L218.0,360.5 L217.9,360.4 L217.2,359.8 L217.1,359.8 L216.3,359.3 L216.2,359.3 L215.4,358.9 L215.2,358.9 L214.4,358.7 L214.0,358.6 L213.3,358.6 L212.9,358.6 L212.2,358.6 L211.9,358.6 L211.1,358.6 L210.6,358.7 L209.9,358.8 L209.3,359.0 L208.7,359.1 L207.9,359.4 L207.4,359.6 L206.5,359.9 L206.1,360.1 L204.9,360.6 L204.6,360.8 L203.5,361.3 L203.0,361.6 L201.7,362.3 L201.4,362.5 L199.9,363.5 L199.6,363.7 L197.8,364.9 L197.7,364.9 L195.6,366.4 L195.6,366.4 L193.5,367.9 L193.2,368.1 L191.1,369.6 L190.5,370.0 L188.5,371.4" class="zone" data-zone="19" data-start="0.951" data-end="0.984"/>
  <path d="M188.5,371.4 L187.7,372.0 L185.8,373.4 L184.7,374.2 L182.8,375.5 L181.4,376.5 L179.8,377.5 L178.0,378.8 L176.5,379.8 L174.9,380.9 L173.0,382.2 L170.7,383.8 L169.6,384.5 L168.3,385.4 L167.8,385.8 L164.6,388.0 L163.9,388.5 L160.1,391.0 L159.8,391.3 L157.0,393.3 M157.2,393.1 L156.8,393.3 L154.9,394.6 L152.8,396.1 L150.4,397.8 L148.6,399.0 L145.8,400.9 L144.4,401.9 L141.3,404.0 L140.2,404.8 L136.5,407.3 L135.8,407.8 L132.4,410.1 L131.3,410.9 L127.3,413.6 L127.0,413.9 L122.4,417.0 L122.3,417.1 L117.7,420.2 L117.2,420.6 L113.0,423.5" class="zone" data-zone="20" data-start="0.984" data-end="0.020"/>

  <!-- Start/Finish line -->
  <line x1="162.2" y1="400.6" x2="152.3" y2="385.5" class="sf-line"/>

  <!-- Corner markers -->
  <circle cx="42.7" cy="462.1" r="3.5" class="corner-dot"/>
  <text x="42.7" y="454.1" text-anchor="middle" class="corner-num">1</text>
  <circle cx="182.0" cy="270.2" r="3.5" class="corner-dot"/>
  <text x="182.0" y="262.2" text-anchor="middle" class="corner-num">2</text>
  <circle cx="211.7" cy="240.2" r="3.5" class="corner-dot"/>
  <text x="211.7" y="232.2" text-anchor="middle" class="corner-num">3</text>
  <circle cx="244.2" cy="231.7" r="3.5" class="corner-dot"/>
  <text x="244.2" y="223.7" text-anchor="middle" class="corner-num">4</text>
  <circle cx="609.0" cy="76.4" r="3.5" class="corner-dot"/>
  <text x="609.0" y="68.4" text-anchor="middle" class="corner-num">5</text>
  <circle cx="632.4" cy="92.8" r="3.5" class="corner-dot"/>
  <text x="632.4" y="84.8" text-anchor="middle" class="corner-num">6</text>
  <circle cx="688.1" cy="86.9" r="3.5" class="corner-dot"/>
  <text x="688.1" y="78.9" text-anchor="middle" class="corner-num">7</text>
  <circle cx="751.8" cy="198.6" r="3.5" class="corner-dot"/>
  <text x="751.8" y="190.6" text-anchor="middle" class="corner-num">8</text>
  <circle cx="688.7" cy="151.5" r="3.5" class="corner-dot"/>
  <text x="688.7" y="143.5" text-anchor="middle" class="corner-num">9</text>
  <circle cx="515.0" cy="207.0" r="3.5" class="corner-dot"/>
  <text x="515.0" y="199.0" text-anchor="middle" class="corner-num">10</text>
  <circle cx="521.2" cy="287.5" r="3.5" class="corner-dot"/>
  <text x="521.2" y="279.5" text-anchor="middle" class="corner-num">11</text>
  <circle cx="657.5" cy="344.5" r="3.5" class="corner-dot"/>
  <text x="657.5" y="336.5" text-anchor="middle" class="corner-num">12</text>
  <circle cx="653.2" cy="398.5" r="3.5" class="corner-dot"/>
  <text x="653.2" y="390.5" text-anchor="middle" class="corner-num">13</text>
  <circle cx="732.6" cy="461.0" r="3.5" class="corner-dot"/>
  <text x="732.6" y="453.0" text-anchor="middle" class="corner-num">14</text>
  <circle cx="681.8" cy="524.8" r="3.5" class="corner-dot"/>
  <text x="681.8" y="516.8" text-anchor="middle" class="corner-num">15</text>
  <circle cx="497.2" cy="358.6" r="3.5" class="corner-dot"/>
  <text x="497.2" y="350.6" text-anchor="middle" class="corner-num">16</text>
  <circle cx="405.5" cy="327.1" r="3.5" class="corner-dot"/>
  <text x="405.5" y="319.1" text-anchor="middle" class="corner-num">17</text>
  <circle cx="225.8" cy="377.1" r="3.5" class="corner-dot"/>
  <text x="225.8" y="369.1" text-anchor="middle" class="corner-num">18</text>
  <circle cx="214.4" cy="358.7" r="3.5" class="corner-dot"/>
  <text x="214.4" y="350.7" text-anchor="middle" class="corner-num">19</text>
</svg>